<?xml version="1.0" standalone="no"?><!DOCTYPE svg PUBLIC "-//W3C//DTD SVG 1.1//EN" "http://www.w3.org/Graphics/SVG/1.1/DTD/svg11.dtd"><svg t="1749141861348" class="icon" viewBox="0 0 1024 1024" version="1.1" xmlns="http://www.w3.org/2000/svg" p-id="18599" xmlns:xlink="http://www.w3.org/1999/xlink" width="200" height="200"><path d="M940.349323 795.874349c0 78.651314-63.771419 142.422733-142.422733 142.422733L228.226446 938.297083c-78.655408 0-142.42785-63.772442-142.42785-142.422733L85.798597 226.175229c0-78.657454 63.772442-142.43092 142.42785-142.43092l569.701167 0c78.659501 0 142.431943 63.771419 142.431943 142.43092L940.349323 795.874349 940.349323 795.874349 940.349323 795.874349zM725.37111 589.876672l0-227.255841-426.350295 0 0 227.255841L725.37111 589.876672 725.37111 589.876672 725.37111 589.876672zM360.857163 420.714947l303.32126 0 0 111.101377L360.857163 531.816325 360.857163 420.714947 360.857163 420.714947 360.857163 420.714947zM633.138476 720.868051c18.552541-28.396747 36.059264-61.33288 52.281737-98.719372l-62.016449-22.604834c-16.122189 44.298925-34.915207 84.805478-56.275701 121.324206L459.190749 720.868051c-17.903765-47.327912-38.08234-87.803765-60.72913-121.324206l-57.039087 22.604834c23.531949 35.295877 42.482557 68.15117 57.039087 98.719372L239.551376 720.868051l0 57.500599 545.288151 0L784.839527 720.868051 633.138476 720.868051 633.138476 720.868051 633.138476 720.868051zM633.138476 720.868051M766.829338 241.272066 253.403872 241.272066l0 58.014298 513.425466 0L766.829338 241.272066z" fill="#2aa515" p-id="18600"></path></svg>