<?xml version="1.0" standalone="no"?><!DOCTYPE svg PUBLIC "-//W3C//DTD SVG 1.1//EN" "http://www.w3.org/Graphics/SVG/1.1/DTD/svg11.dtd"><svg t="1749665092780" class="icon" viewBox="0 0 1024 1024" version="1.1" xmlns="http://www.w3.org/2000/svg" p-id="4254" xmlns:xlink="http://www.w3.org/1999/xlink" width="200" height="200"><path d="M840.533333 490.666667l-17.066666-85.333334L554.666667 460.8V170.666667h-85.333334v262.4l-296.533333-192-46.933333 72.533333 324.266666 209.066667L200.533333 849.066667l68.266667 51.2 241.066667-315.733334 179.2 270.933334 72.533333-46.933334-179.2-266.666666z" fill="#ffffff" p-id="4255" data-spm-anchor-id="a313x.search_index.0.i1.30873a81BLePbx" class="selected"></path><path d="M512 512m-149.333333 0a149.333333 149.333333 0 1 0 298.666666 0 149.333333 149.333333 0 1 0-298.666666 0Z" fill="#ffffff" p-id="4256" data-spm-anchor-id="a313x.search_index.0.i0.30873a81BLePbx" class="selected"></path><path d="M512 170.666667m-106.666667 0a106.666667 106.666667 0 1 0 213.333334 0 106.666667 106.666667 0 1 0-213.333334 0Z" fill="#ffffff" p-id="4257" data-spm-anchor-id="a313x.search_index.0.i3.30873a81BLePbx" class="selected"></path><path d="M832 448m-106.666667 0a106.666667 106.666667 0 1 0 213.333334 0 106.666667 106.666667 0 1 0-213.333334 0Z" fill="#ffffff" p-id="4258" data-spm-anchor-id="a313x.search_index.0.i4.30873a81BLePbx" class="selected"></path><path d="M149.333333 277.333333m-106.666666 0a106.666667 106.666667 0 1 0 213.333333 0 106.666667 106.666667 0 1 0-213.333333 0Z" fill="#ffffff" p-id="4259" data-spm-anchor-id="a313x.search_index.0.i2.30873a81BLePbx" class="selected"></path><path d="M234.666667 874.666667m-106.666667 0a106.666667 106.666667 0 1 0 213.333333 0 106.666667 106.666667 0 1 0-213.333333 0Z" fill="#ffffff" p-id="4260" data-spm-anchor-id="a313x.search_index.0.i6.30873a81BLePbx" class="selected"></path><path d="M725.333333 832m-106.666666 0a106.666667 106.666667 0 1 0 213.333333 0 106.666667 106.666667 0 1 0-213.333333 0Z" fill="#ffffff" p-id="4261" data-spm-anchor-id="a313x.search_index.0.i5.30873a81BLePbx" class="selected"></path></svg>